<svg aria-hidden="true" style="position: absolute; width: 0; height: 0; overflow: hidden;" version="1.1" xmlns="http://www.w3.org/2000/svg" xmlns:xlink="http://www.w3.org/1999/xlink">
<defs>
<symbol id="icon-icon-search" viewBox="0 0 32 32">
<path fill="#fff" style="fill: var(--color1, #fff)" d="M23.111 19.556h-3.556l3.556-7.111c0.023-0.261 0.036-0.564 0.036-0.871 0-5.891-4.776-10.667-10.667-10.667s-10.667 4.776-10.667 10.667c0 5.891 4.776 10.667 10.667 10.667 2.72 0 5.202-1.018 7.086-2.694l-0.011 0.009v3.556l8.889 7.111 1.778-1.778-7.111-8.889zM12.444 19.556c-0.267 0.031-0.576 0.049-0.889 0.049-4.445 0-8.049-3.604-8.049-8.049 0-4.132 3.114-7.537 7.123-7.997l0.037-0.003c0.267-0.031 0.576-0.049 0.889-0.049 4.445 0 8.049 3.604 8.049 8.049 0 4.132-3.114 7.537-7.123 7.997l-0.037 0.003z"></path>
</symbol>
</defs>
</svg>
